<svg xmlns="http://www.w3.org/2000/svg" width="96" height="96" viewBox="0 0 96 96">
    <path class="ef55af53-9383-455f-a2ca-16cc27ca2caa" d="M40.25,13.66,8,45.26v5.6L16,43V82A10,10,0,0,0,26,92H70A10,10,0,0,0,80,82V43l8,7.84v-5.6L55.76,13.67A11,11,0,0,0,40.25,13.66ZM56,88H40V65a2,2,0,0,1,2-2H54a2,2,0,0,1,2,2Zm20-6a6,6,0,0,1-6,6H60V65a6,6,0,0,0-6-6H42a6,6,0,0,0-6,6V88H26a6,6,0,0,1-6-6V39.1L43.07,16.5a7,7,0,0,1,9.88,0L76,39.1ZM92,26H88A18,18,0,0,0,70,8V4A22,22,0,0,1,92,26ZM70,16V12A14,14,0,0,1,84,26H80A10,10,0,0,0,70,16Z"/></svg>