<!-- Generated by IcoMoon.io -->
<svg version="1.1" xmlns="http://www.w3.org/2000/svg" width="32" height="32" viewBox="0 0 32 32">
<title>uniF132</title>
<path d="M27.778 13.657v0c1.598 8.441-5.655 15.705-14.079 14.107-4.71-0.895-8.502-4.699-9.397-9.414-1.598-8.446 5.655-15.705 14.079-14.107 4.71 0.895 8.502 4.699 9.397 9.414zM21.413 19.712v0l-3.703-3.708 3.703-3.708c0.371-0.371 0.371-0.985 0-1.356l-0.394-0.4c-0.377-0.371-0.985-0.371-1.356 0l-3.731 3.736-3.725-3.736c-0.371-0.371-0.979-0.371-1.35 0l-0.394 0.4c-0.371 0.377-0.371 0.985 0 1.356l3.703 3.714-3.703 3.708c-0.371 0.371-0.371 0.985 0 1.356l0.394 0.394c0.371 0.371 0.979 0.371 1.35 0l3.731-3.736 3.725 3.736c0.377 0.371 0.985 0.371 1.356 0l0.394-0.399c0.371-0.371 0.371-0.985 0-1.356z"></path>
</svg>
