<!-- Generated by IcoMoon.io -->
<svg version="1.1" xmlns="http://www.w3.org/2000/svg" width="32" height="32" viewBox="0 0 32 32">
<title>uniF128</title>
<path d="M4.471 11.97h4.939v16.030h-4.939v-16.030zM6.944 9.78c-1.58 0-2.862-1.293-2.862-2.89 0-1.592 1.281-2.89 2.862-2.89s2.862 1.293 2.862 2.89c-0 1.592-1.281 2.89-2.862 2.89v0zM27.918 28h-4.939v-7.795c0-1.863-0.034-4.25-2.568-4.25-2.568 0-2.963 2.026-2.963 4.115v7.93h-4.939v-16.030h4.741v2.19h0.068c0.66-1.259 2.269-2.591 4.674-2.591 5.001 0 5.927 3.319 5.927 7.637v8.794h0z"></path>
</svg>
