<!-- Generated by IcoMoon.io -->
<svg xmlns="http://www.w3.org/2000/svg" viewBox="0 0 32 32">
<title>email</title>
<path d="M26.679 4c2.924 0 5.328 2.405 5.328 5.328v13.343c0 2.918-2.365 5.328-5.328 5.328h-21.358c-2.918 0-5.328-2.365-5.328-5.328v-13.343c0-2.918 2.365-5.328 5.328-5.328h21.358zM29.321 22.717l0-0.006h0.045v-10.098l-10.425 7.276c-0.83 0.604-1.897 0.881-2.963 0.881-1.061 0-2.128-0.277-2.963-0.881l-10.425-7.276v10.104c0 1.485 1.202 2.687 2.687 2.687h21.358c1.485 0 2.687-1.202 2.687-2.687zM17.417 17.71l11.949-8.337c0-1.484-1.202-2.687-2.687-2.687h-21.358c-1.484 0-2.687 1.202-2.687 2.687l11.955 8.337c0.745 0.508 2.088 0.508 2.828 0z"></path>
</svg>
